<svg width="476" height="208" viewBox="0 0 476 208" fill="none" xmlns="http://www.w3.org/2000/svg">
<g clip-path="url(#clip0_2012_17643)">
<g clip-path="url(#clip1_2012_17643)">
<g clip-path="url(#clip2_2012_17643)">
<g filter="url(#filter0_bd_2012_17643)">
<rect x="119" y="0.485352" width="70" height="70" rx="35" fill="white" fill-opacity="0.8" shape-rendering="crispEdges"/>
</g>
<g clip-path="url(#clip3_2012_17643)">
<path d="M154 15.4854C165.047 15.4854 174 24.4404 174 35.4854C174 46.5321 165.047 55.4854 154 55.4854C142.955 55.4854 134 46.5312 134 35.4854C134 24.4404 142.955 15.4854 154 15.4854Z" fill="url(#paint0_linear_2012_17643)"/>
<path d="M154.692 36.6966H161.213C161.352 36.6966 161.418 36.6966 161.428 36.5143C161.481 35.851 161.481 35.1837 161.428 34.5196C161.428 34.3906 161.364 34.3373 161.224 34.3373H148.246C148.086 34.3373 148.042 34.3906 148.042 34.5412V36.4502C148.042 36.6966 148.042 36.6966 148.299 36.6966H154.692ZM160.7 32.1062C160.718 32.0576 160.718 32.0043 160.7 31.9564C160.591 31.7193 160.462 31.493 160.312 31.2807C160.087 30.9177 159.821 30.5833 159.518 30.2829C159.375 30.1014 159.21 29.9385 159.025 29.8002C158.096 29.0102 156.993 28.4511 155.807 28.17C155.208 28.0356 154.597 27.9715 153.983 27.9769H148.224C148.063 27.9769 148.042 28.041 148.042 28.1808V31.9881C148.042 32.1487 148.042 32.1919 148.245 32.1919H160.623C160.623 32.1919 160.73 32.1703 160.752 32.1062H160.699H160.7ZM160.7 38.9277C160.518 38.9076 160.334 38.9076 160.151 38.9277H148.257C148.096 38.9277 148.042 38.9277 148.042 39.1424V42.8647C148.042 43.0361 148.042 43.0794 148.257 43.0794H153.749C154.011 43.0995 154.274 43.0809 154.531 43.0261C155.328 42.969 156.112 42.796 156.859 42.511C157.131 42.4168 157.394 42.294 157.642 42.1465H157.716C159.004 41.4769 160.05 40.4251 160.709 39.1339C160.709 39.1339 160.784 38.9717 160.7 38.9292V38.9277ZM145.887 45.0093V44.9452V42.4461V41.5989V39.0783C145.887 38.9385 145.887 38.9176 145.715 38.9176H143.388C143.259 38.9176 143.206 38.9176 143.206 38.7462V36.7082H145.694C145.833 36.7082 145.887 36.7082 145.887 36.5259V34.5095C145.887 34.3806 145.887 34.3489 145.715 34.3489H143.388C143.259 34.3489 143.206 34.3489 143.206 34.1774V32.29C143.206 32.1719 143.206 32.1402 143.377 32.1402H145.683C145.844 32.1402 145.887 32.1402 145.887 31.9363V26.1551C145.887 25.9837 145.887 25.9404 146.102 25.9404H154.146C154.729 25.9636 155.309 26.0277 155.883 26.1335C157.065 26.352 158.201 26.7745 159.24 27.3776C159.929 27.7831 160.563 28.2727 161.128 28.8364C161.552 29.2774 161.935 29.7547 162.275 30.2628C162.613 30.7779 162.893 31.3285 163.113 31.9039C163.14 32.0537 163.284 32.1549 163.434 32.1294H165.353C165.6 32.1294 165.6 32.1294 165.611 32.3657V34.1249C165.611 34.2964 165.547 34.3396 165.374 34.3396H163.894C163.744 34.3396 163.701 34.3396 163.712 34.5327C163.77 35.186 163.77 35.8417 163.712 36.495C163.712 36.6773 163.712 36.6989 163.916 36.6989H165.61C165.685 36.7954 165.61 36.892 165.61 36.9893C165.621 37.1136 165.621 37.2395 165.61 37.3638V38.662C165.61 38.8443 165.557 38.8983 165.395 38.8983H163.368C163.227 38.8713 163.089 38.9616 163.057 39.1022C162.574 40.3571 161.802 41.4823 160.804 42.3843C160.44 42.7126 160.056 43.0215 159.656 43.3064C159.227 43.5536 158.809 43.8107 158.369 44.0146C157.559 44.3791 156.709 44.6479 155.838 44.8185C155.01 44.9668 154.17 45.034 153.328 45.0224H145.884V45.0116L145.887 45.0093Z" fill="#FEFEFD"/>
</g>
<g filter="url(#filter1_bd_2012_17643)">
<rect x="406" y="47.4854" width="70" height="70" rx="35" fill="white" fill-opacity="0.8" shape-rendering="crispEdges"/>
</g>
<path fill-rule="evenodd" clip-rule="evenodd" d="M440.88 102.146C451.802 102.146 460.657 93.291 460.657 82.3681C460.657 71.4453 451.802 62.5906 440.88 62.5906C429.957 62.5906 421.102 71.4453 421.102 82.3681C421.102 93.291 429.957 102.146 440.88 102.146Z" fill="#3D5E98"/>
<path fill-rule="evenodd" clip-rule="evenodd" d="M439.724 87.6514L441.008 82.8143L444.05 81.7031L444.806 78.8604L444.78 78.7899L441.787 79.8836L443.944 71.7615H437.826L435.005 82.361L432.65 83.2214L431.872 86.1521L434.225 85.2924L432.563 91.5392H448.844L449.887 87.6514H439.724Z" fill="white"/>
</g>
</g>
<g clip-path="url(#clip4_2012_17643)">
<g filter="url(#filter2_bd_2012_17643)">
<rect y="137.485" width="70" height="70" rx="35" fill="white" fill-opacity="0.8" shape-rendering="crispEdges"/>
</g>
<g filter="url(#filter3_bd_2012_17643)">
<rect x="321" y="132.485" width="70" height="70" rx="35" fill="white" fill-opacity="0.8" shape-rendering="crispEdges"/>
</g>
<path d="M375.401 172.324C372.73 183.038 361.877 189.559 351.16 186.887C340.448 184.216 333.926 173.363 336.599 162.649C339.269 151.934 350.122 145.413 360.836 148.084C371.552 150.755 378.073 161.609 375.401 172.324Z" fill="#F7931A"/>
<path d="M364.818 164.636C365.216 161.974 363.19 160.544 360.42 159.589L361.318 155.984L359.124 155.438L358.249 158.948C357.672 158.804 357.08 158.668 356.491 158.534L357.372 155.001L355.179 154.454L354.28 158.058C353.802 157.949 353.333 157.841 352.878 157.728L352.881 157.717L349.855 156.961L349.271 159.305C349.271 159.305 350.899 159.678 350.865 159.701C351.753 159.923 351.914 160.511 351.887 160.978L350.863 165.084C350.925 165.1 351.004 165.123 351.091 165.158C351.018 165.139 350.94 165.119 350.86 165.1L349.425 170.853C349.316 171.123 349.04 171.528 348.419 171.374C348.441 171.406 346.824 170.976 346.824 170.976L345.735 173.488L348.59 174.2C349.121 174.333 349.642 174.473 350.155 174.604L349.246 178.25L351.438 178.797L352.338 175.189C352.936 175.352 353.518 175.502 354.086 175.643L353.19 179.234L355.385 179.781L356.293 176.141C360.035 176.849 362.848 176.564 364.033 173.179C364.987 170.454 363.985 168.883 362.016 167.858C363.45 167.527 364.53 166.584 364.818 164.636ZM359.805 171.666C359.126 174.391 354.538 172.918 353.051 172.549L354.256 167.718C355.743 168.089 360.513 168.824 359.805 171.666ZM360.483 164.596C359.865 167.075 356.046 165.816 354.807 165.507L355.9 161.126C357.138 161.434 361.128 162.011 360.483 164.596Z" fill="white"/>
<ellipse cx="35" cy="172.485" rx="20" ry="20" fill="#26A17B"/>
<path d="M37.2087 174.176V174.173C37.0687 174.183 36.3458 174.224 34.7372 174.224C33.451 174.224 32.549 174.189 32.2299 174.173V174.176C27.2837 173.961 23.5944 173.115 23.5944 172.098C23.5944 171.085 27.287 170.235 32.2299 170.021V173.333C32.5523 173.355 33.4803 173.41 34.76 173.41C36.297 173.41 37.0654 173.346 37.2087 173.333V170.024C42.1451 170.242 45.8246 171.088 45.8246 172.102C45.8246 173.115 42.1419 173.961 37.2087 174.179V174.176ZM37.2087 169.681V166.718H44.0956V162.2H25.3463V166.718H32.2332V169.681C26.6357 169.934 22.4287 171.024 22.4287 172.332C22.4287 173.641 26.639 174.731 32.2332 174.988V184.485H37.2119V174.988C42.7996 174.734 47.0001 173.644 47.0001 172.336C47.0001 171.031 42.7996 169.937 37.2119 169.684" fill="white"/>
</g>
</g>
<defs>
<filter id="filter0_bd_2012_17643" x="95" y="-3.51465" width="118" height="130" filterUnits="userSpaceOnUse" color-interpolation-filters="sRGB">
<feFlood flood-opacity="0" result="BackgroundImageFix"/>
<feGaussianBlur in="BackgroundImageFix" stdDeviation="2"/>
<feComposite in2="SourceAlpha" operator="in" result="effect1_backgroundBlur_2012_17643"/>
<feColorMatrix in="SourceAlpha" type="matrix" values="0 0 0 0 0 0 0 0 0 0 0 0 0 0 0 0 0 0 127 0" result="hardAlpha"/>
<feMorphology radius="24" operator="erode" in="SourceAlpha" result="effect2_dropShadow_2012_17643"/>
<feOffset dy="32"/>
<feGaussianBlur stdDeviation="24"/>
<feComposite in2="hardAlpha" operator="out"/>
<feColorMatrix type="matrix" values="0 0 0 0 0 0 0 0 0 0 0 0 0 0 0 0 0 0 0.12 0"/>
<feBlend mode="normal" in2="effect1_backgroundBlur_2012_17643" result="effect2_dropShadow_2012_17643"/>
<feBlend mode="normal" in="SourceGraphic" in2="effect2_dropShadow_2012_17643" result="shape"/>
</filter>
<filter id="filter1_bd_2012_17643" x="382" y="43.4854" width="118" height="130" filterUnits="userSpaceOnUse" color-interpolation-filters="sRGB">
<feFlood flood-opacity="0" result="BackgroundImageFix"/>
<feGaussianBlur in="BackgroundImageFix" stdDeviation="2"/>
<feComposite in2="SourceAlpha" operator="in" result="effect1_backgroundBlur_2012_17643"/>
<feColorMatrix in="SourceAlpha" type="matrix" values="0 0 0 0 0 0 0 0 0 0 0 0 0 0 0 0 0 0 127 0" result="hardAlpha"/>
<feMorphology radius="24" operator="erode" in="SourceAlpha" result="effect2_dropShadow_2012_17643"/>
<feOffset dy="32"/>
<feGaussianBlur stdDeviation="24"/>
<feComposite in2="hardAlpha" operator="out"/>
<feColorMatrix type="matrix" values="0 0 0 0 0 0 0 0 0 0 0 0 0 0 0 0 0 0 0.12 0"/>
<feBlend mode="normal" in2="effect1_backgroundBlur_2012_17643" result="effect2_dropShadow_2012_17643"/>
<feBlend mode="normal" in="SourceGraphic" in2="effect2_dropShadow_2012_17643" result="shape"/>
</filter>
<filter id="filter2_bd_2012_17643" x="-24" y="133.485" width="118" height="130" filterUnits="userSpaceOnUse" color-interpolation-filters="sRGB">
<feFlood flood-opacity="0" result="BackgroundImageFix"/>
<feGaussianBlur in="BackgroundImageFix" stdDeviation="2"/>
<feComposite in2="SourceAlpha" operator="in" result="effect1_backgroundBlur_2012_17643"/>
<feColorMatrix in="SourceAlpha" type="matrix" values="0 0 0 0 0 0 0 0 0 0 0 0 0 0 0 0 0 0 127 0" result="hardAlpha"/>
<feMorphology radius="24" operator="erode" in="SourceAlpha" result="effect2_dropShadow_2012_17643"/>
<feOffset dy="32"/>
<feGaussianBlur stdDeviation="24"/>
<feComposite in2="hardAlpha" operator="out"/>
<feColorMatrix type="matrix" values="0 0 0 0 0 0 0 0 0 0 0 0 0 0 0 0 0 0 0.12 0"/>
<feBlend mode="normal" in2="effect1_backgroundBlur_2012_17643" result="effect2_dropShadow_2012_17643"/>
<feBlend mode="normal" in="SourceGraphic" in2="effect2_dropShadow_2012_17643" result="shape"/>
</filter>
<filter id="filter3_bd_2012_17643" x="297" y="128.485" width="118" height="130" filterUnits="userSpaceOnUse" color-interpolation-filters="sRGB">
<feFlood flood-opacity="0" result="BackgroundImageFix"/>
<feGaussianBlur in="BackgroundImageFix" stdDeviation="2"/>
<feComposite in2="SourceAlpha" operator="in" result="effect1_backgroundBlur_2012_17643"/>
<feColorMatrix in="SourceAlpha" type="matrix" values="0 0 0 0 0 0 0 0 0 0 0 0 0 0 0 0 0 0 127 0" result="hardAlpha"/>
<feMorphology radius="24" operator="erode" in="SourceAlpha" result="effect2_dropShadow_2012_17643"/>
<feOffset dy="32"/>
<feGaussianBlur stdDeviation="24"/>
<feComposite in2="hardAlpha" operator="out"/>
<feColorMatrix type="matrix" values="0 0 0 0 0 0 0 0 0 0 0 0 0 0 0 0 0 0 0.12 0"/>
<feBlend mode="normal" in2="effect1_backgroundBlur_2012_17643" result="effect2_dropShadow_2012_17643"/>
<feBlend mode="normal" in="SourceGraphic" in2="effect2_dropShadow_2012_17643" result="shape"/>
</filter>
<linearGradient id="paint0_linear_2012_17643" x1="154" y1="15.4854" x2="154" y2="55.4854" gradientUnits="userSpaceOnUse">
<stop stop-color="#FAAB11"/>
<stop offset="1" stop-color="#F6C556"/>
</linearGradient>
<clipPath id="clip0_2012_17643">
<rect width="476" height="207" fill="white" transform="translate(0 0.485352)"/>
</clipPath>
<clipPath id="clip1_2012_17643">
<rect width="476" height="117" fill="white" transform="translate(0 0.485352)"/>
</clipPath>
<clipPath id="clip2_2012_17643">
<rect width="357" height="117" fill="white" transform="translate(119 0.485352)"/>
</clipPath>
<clipPath id="clip3_2012_17643">
<rect width="40" height="40" fill="white" transform="translate(134 15.4854)"/>
</clipPath>
<clipPath id="clip4_2012_17643">
<rect width="391" height="75" fill="white" transform="translate(0 132.485)"/>
</clipPath>
</defs>
</svg>
