<svg width="17" height="16" viewBox="0 0 17 16" fill="none" xmlns="http://www.w3.org/2000/svg">
<path fill-rule="evenodd" clip-rule="evenodd" d="M5.16683 10.6008V12.6633L8.54164 10.6691L8.89438 10.6633C10.297 10.6404 11.5592 10.4992 12.5031 10.3555C13.0987 10.2649 13.5126 9.8492 13.6025 9.32721C13.7273 8.60317 13.8335 7.68586 13.8335 6.66658C13.8335 5.64731 13.7273 4.73 13.6025 4.00596C13.5126 3.48397 13.0987 3.06826 12.5031 2.97763C11.4708 2.82056 10.0591 2.66659 8.50016 2.66659C6.94127 2.66659 5.52955 2.82056 4.49724 2.97763C3.90159 3.06826 3.4877 3.48397 3.39778 4.00596C3.27307 4.73 3.16683 5.64731 3.16683 6.66658C3.16683 7.68586 3.27307 8.60317 3.39778 9.32721C3.47586 9.78049 3.79252 10.1438 4.25422 10.2973L5.16683 10.6008ZM2.0838 3.77963C2.27726 2.6565 3.16998 1.8309 4.29668 1.65947C5.37623 1.49521 6.85722 1.33325 8.50016 1.33325C10.1431 1.33325 11.6241 1.49521 12.7036 1.65947C13.8303 1.8309 14.7231 2.6565 14.9165 3.77963C15.0514 4.5624 15.1668 5.55675 15.1668 6.66658C15.1668 7.77642 15.0514 8.77077 14.9165 9.55354C14.7231 10.6767 13.8303 11.5023 12.7036 11.6737C11.716 11.824 10.3924 11.9723 8.91621 11.9965L4.83931 14.4056C4.3949 14.6682 3.8335 14.3478 3.8335 13.8316V11.5626C2.9312 11.2625 2.24987 10.5176 2.0838 9.55354C1.94897 8.77077 1.8335 7.77642 1.8335 6.66658C1.8335 5.55675 1.94897 4.5624 2.0838 3.77963Z" fill="#585858"/>
<path fill-rule="evenodd" clip-rule="evenodd" d="M5.16667 4.66675C4.79848 4.66675 4.5 4.96522 4.5 5.33341C4.5 5.7016 4.79848 6.00008 5.16667 6.00008H11.8333C12.2015 6.00008 12.5 5.7016 12.5 5.33341C12.5 4.96522 12.2015 4.66675 11.8333 4.66675H5.16667ZM5.16667 7.33341C4.79848 7.33341 4.5 7.63189 4.5 8.00008C4.5 8.36827 4.79848 8.66675 5.16667 8.66675H7.83333C8.20152 8.66675 8.5 8.36827 8.5 8.00008C8.5 7.63189 8.20152 7.33341 7.83333 7.33341H5.16667Z" fill="#585858"/>
</svg>
