<svg width="102" height="43" viewBox="0 0 102 43" fill="none" xmlns="http://www.w3.org/2000/svg">
<path d="M102 10.8146V10.7501C101.855 8.96588 100.722 7.37516 98.9612 6.51531L88.1085 1.16275C86.4203 0.324399 84.3945 0.281407 82.6581 1.03377L66.9337 7.91257C64.9561 8.77242 63.702 10.5136 63.6297 12.4698L63.0026 31.0855C62.9303 33.2781 64.3532 35.2343 66.5961 36.0941L82.5134 42.0916C83.261 42.371 84.0328 42.5 84.8045 42.5C85.721 42.5 86.6133 42.3065 87.4333 41.9411L87.5056 41.9196L89.7244 40.5223L89.8691 40.5868L90.0138 40.3289L97.7072 35.5137C99.7812 34.5464 101.011 32.6117 100.891 30.5266L101.976 10.8361L102 10.8146ZM87.0715 2.86095L97.9242 8.21351C98.2618 8.38548 98.5754 8.60045 98.8165 8.83691L90.5203 10.7931C88.9526 7.26768 87.6986 4.45167 86.9992 2.83946C87.0233 2.83946 87.0474 2.86095 87.0715 2.86095ZM87.3368 36.696L90.9785 30.5266L91.7985 30.9135L91.4126 31.6229L86.9992 39.1036L87.3368 36.696ZM87.5056 35.4707L87.8674 33.0417L89.7003 29.9247L90.5444 30.3116L87.5056 35.4707ZM88.0362 31.8164L88.398 29.3228L89.2662 29.7312L88.0362 31.8164ZM70.1172 27.6676L65.1973 30.4621L65.2214 29.5593L69.876 26.9152L70.1172 27.6676ZM65.7038 15.2428L66.2343 14.9418L66.4755 15.6942L65.6796 16.1456L65.7038 15.2428ZM65.6555 16.683L66.5961 16.1456L66.8373 16.898L65.6314 17.5859L65.6555 16.683ZM65.6073 18.1018L66.9578 17.3279L67.199 18.0803L65.5832 19.0046L65.6073 18.1018ZM65.559 19.542L67.3196 18.5317L67.5608 19.2841L65.5349 20.4234L65.559 19.542ZM65.5108 20.9608L67.7055 19.7355L67.9466 20.4879L65.5108 21.8636V20.9608ZM65.4626 22.401L68.0672 20.9178L68.3084 21.6702L65.4385 23.3039L65.4626 22.401ZM65.4143 23.8198L68.429 22.1216L68.6702 22.8739L65.3902 24.7226L65.4143 23.8198ZM65.3661 25.26L68.7907 23.3254L69.0319 24.0777L65.342 26.1629L65.3661 25.26ZM69.7554 26.4853L65.2455 29.0219L65.2696 28.119L69.5143 25.7114L69.7554 26.4853ZM69.3937 25.2815L65.2938 27.6031L65.3179 26.7003L69.1525 24.5292L69.3937 25.2815ZM67.5367 11.8464L88.5185 12.8782L86.7339 27.0227L73.1559 28.0975H73.0836C72.9148 28.119 72.7218 28.162 72.553 28.205L67.5367 11.8464ZM74.1689 10.2342L78.317 5.11806L80.6322 4.10774L75.6159 10.2986L74.1689 10.2342ZM73.59 10.1912L72.143 10.1267L75.0612 6.53681L77.3764 5.52649L73.59 10.1912ZM71.5642 10.1052L70.1172 10.0407L71.8054 7.97706L74.1206 6.96673L71.5642 10.1052ZM84.5633 2.5815C84.6357 2.75347 84.7322 2.96844 84.8286 3.20489C84.901 3.37686 84.9974 3.57033 85.0698 3.78529L79.6434 10.4921L78.1964 10.4276L84.5633 2.5815ZM86.0827 6.0209C86.2515 6.38634 86.4203 6.77327 86.5892 7.1602L83.6951 10.6856L82.2481 10.6211L86.0345 5.93491C86.0586 5.95641 86.0586 5.9994 86.0827 6.0209ZM88.2532 10.922L86.2998 10.8361L87.5297 9.30982C87.795 9.89022 88.0362 10.4491 88.2532 10.922ZM85.8657 10.7931L84.2739 10.7071L86.7821 7.61162C86.9509 8.02005 87.1439 8.42848 87.3127 8.81541L85.7692 10.7286L85.8657 10.7931ZM81.6693 10.5996L80.2223 10.5351L85.2868 4.27971C85.4557 4.64514 85.6245 5.05357 85.8174 5.48349L81.6693 10.5996ZM83.6228 2.79647C83.6951 2.75347 83.7916 2.73198 83.8639 2.71048L77.6176 10.4061L76.1706 10.3416L81.5487 3.69931L83.6228 2.79647ZM67.8743 9.67526L70.8648 8.36399L69.5384 9.9977L67.4402 9.89022C67.5849 9.80423 67.7296 9.73975 67.8743 9.67526ZM66.1137 14.5119L65.7279 14.7269L65.7761 13.3941L66.1137 14.5119ZM65.1732 31.15V30.978L70.2378 28.119L70.5031 29.0004L65.2455 31.8809C65.1973 31.6444 65.1732 31.3864 65.1732 31.15ZM67.4402 34.3099C66.982 34.138 66.572 33.9015 66.2343 33.6006L71.5642 30.6986L81.3316 39.5335L67.4402 34.3099ZM84.6839 39.8345L73.8312 29.9677L86.2515 28.9789L84.6839 39.8345ZM87.0956 39.8345L91.8226 31.8164L92.2085 31.107L93.0767 31.5154L88.8079 38.7597L87.0956 39.8345ZM94.379 32.0958L91.3885 37.1474L89.6762 38.2222L93.5108 31.7089L94.379 32.0958ZM94.789 32.3108L95.6331 32.6977L95.416 33.0632L93.9449 35.5567L92.2326 36.6315L94.789 32.3108ZM96.7184 33.8585L96.646 33.88L94.8372 35.0193L95.8743 33.2781L96.0913 32.9127L97.3695 33.5146C97.1525 33.6221 96.9354 33.751 96.7184 33.8585ZM98.7683 30.5266V30.5911V30.6556C98.7924 31.0855 98.7442 31.4939 98.5995 31.9024L88.8562 27.3881L90.6891 12.9212C90.7132 12.8567 90.7373 12.8137 90.7373 12.7492L99.8053 10.6211C99.8295 10.7071 99.8295 10.7716 99.8295 10.8575L98.7683 30.5266Z" fill="#00E69A"/>
</svg>
